<?xml version="1.0" encoding="UTF-8" standalone="no"?>
<svg
   xmlns:dc="http://purl.org/dc/elements/1.1/"
   xmlns:cc="http://creativecommons.org/ns#"
   xmlns:rdf="http://www.w3.org/1999/02/22-rdf-syntax-ns#"
   xmlns:svg="http://www.w3.org/2000/svg"
   xmlns="http://www.w3.org/2000/svg"
   xmlns:sodipodi="http://sodipodi.sourceforge.net/DTD/sodipodi-0.dtd"
   xmlns:inkscape="http://www.inkscape.org/namespaces/inkscape"
   width="158.75mm"
   height="50mm"
   viewBox="0 0 158.75 50"
   version="1.1"
   id="svg8"
   inkscape:version="1.0.2 (e86c8708, 2021-01-15)"
   sodipodi:docname="nindika.svg">
  <defs
     id="defs2">
    <rect
       x="30.458801"
       y="45.044708"
       width="48.476685"
       height="39.89674"
       id="rect841" />
  </defs>
  <sodipodi:namedview
     id="base"
     pagecolor="#ffffff"
     bordercolor="#666666"
     borderopacity="1.0"
     inkscape:pageopacity="0.0"
     inkscape:pageshadow="2"
     inkscape:zoom="0.3631554"
     inkscape:cx="594.54228"
     inkscape:cy="607.01536"
     inkscape:document-units="mm"
     inkscape:current-layer="layer1"
     inkscape:document-rotation="0"
     showgrid="false"
     units="mm"
     inkscape:window-width="1920"
     inkscape:window-height="1027"
     inkscape:window-x="0"
     inkscape:window-y="25"
     inkscape:window-maximized="1" />
  <metadata
     id="metadata5">
    <rdf:RDF>
      <cc:Work
         rdf:about="">
        <dc:format>image/svg+xml</dc:format>
        <dc:type
           rdf:resource="http://purl.org/dc/dcmitype/StillImage" />
        <dc:title></dc:title>
      </cc:Work>
    </rdf:RDF>
  </metadata>
  <g
     inkscape:label="Layer 1"
     inkscape:groupmode="layer"
     id="layer1">
    <g
       aria-label="nindika"
       transform="matrix(3.6459638,0,0,3.6459638,-98.962385,-163.90761)"
       id="text839"
       style="font-style:normal;font-variant:normal;font-weight:normal;font-stretch:normal;font-size:10.5833px;line-height:1.25;font-family:Inter;-inkscape-font-specification:Inter;letter-spacing:-0.438436px;white-space:pre;shape-inside:url(#rect841)">
      <path
         d="m 33.05971,51.592294 c 0.0038,-0.571258 0.32697,-0.917019 0.841853,-0.917019 0.5224,0 0.830579,0.345761 0.826821,0.917019 v 3.247149 h 2.074567 v -3.683109 c 0.0038,-1.255263 -0.789238,-2.164766 -2.014435,-2.164766 -0.84937,0 -1.522101,0.443477 -1.773905,1.172582 h -0.06013 v -1.097416 h -1.969335 v 5.772709 h 2.074567 z"
         style="font-style:normal;font-variant:normal;font-weight:900;font-stretch:normal;font-family:Inter;-inkscape-font-specification:'Inter Heavy'"
         id="path849" />
      <path
         style="color:#000000;font-style:normal;font-variant:normal;font-weight:900;font-stretch:normal;font-size:medium;line-height:1.25;font-family:Inter;-inkscape-font-specification:'Inter Heavy';font-variant-ligatures:normal;font-variant-position:normal;font-variant-caps:normal;font-variant-numeric:normal;font-variant-alternates:normal;font-variant-east-asian:normal;font-feature-settings:normal;font-variation-settings:normal;text-indent:0;text-align:start;text-decoration:none;text-decoration-line:none;text-decoration-style:solid;text-decoration-color:#000000;letter-spacing:-0.438436px;word-spacing:normal;text-transform:none;writing-mode:lr-tb;direction:ltr;text-orientation:mixed;dominant-baseline:auto;baseline-shift:baseline;text-anchor:start;white-space:normal;shape-padding:0;shape-margin:0;inline-size:0;clip-rule:nonzero;display:inline;overflow:visible;visibility:visible;opacity:1;isolation:auto;mix-blend-mode:normal;color-interpolation:sRGB;color-interpolation-filters:linearRGB;solid-color:#000000;solid-opacity:1;vector-effect:none;fill:#000000;fill-opacity:1;fill-rule:nonzero;stroke:none;stroke-width:1;stroke-linecap:butt;stroke-linejoin:miter;stroke-miterlimit:4;stroke-dasharray:none;stroke-dashoffset:0;stroke-opacity:1;color-rendering:auto;image-rendering:auto;shape-rendering:auto;text-rendering:auto;enable-background:accumulate;stop-color:#000000;stop-opacity:1"
         d="m 37.388645,54.839443 h 2.074567 v -5.772709 h -2.074567 z m 1.037283,-6.374033 c 0.563741,0 1.022251,-0.424685 1.022251,-0.947085 0,-0.5224 -0.45851,-0.947085 -1.022251,-0.947085 -0.563741,0 -1.02225,0.424685 -1.02225,0.947085 0,0.5224 0.458509,0.947085 1.02225,0.947085 z"
         id="path851" />
      <path
         d="m 42.146022,51.592294 c 0.0038,-0.571258 0.32697,-0.917019 0.841854,-0.917019 0.5224,0 0.830578,0.345761 0.82682,0.917019 v 3.247149 h 2.074567 v -3.683109 c 0.0038,-1.255263 -0.789237,-2.164766 -2.014435,-2.164766 -0.84937,0 -1.522101,0.443477 -1.773905,1.172582 h -0.06013 v -1.097416 h -1.969336 v 5.772709 h 2.074567 z"
         style="font-style:normal;font-variant:normal;font-weight:900;font-stretch:normal;font-family:Inter;-inkscape-font-specification:'Inter Heavy'"
         id="path853" />
      <path
         d="m 48.564558,54.914608 c 0.811787,0 1.368012,-0.43596 1.608541,-1.02225 h 0.0451 v 0.947085 h 2.059535 v -7.696945 h -2.074568 v 2.931453 h -0.03007 c -0.225496,-0.58629 -0.766688,-1.082383 -1.623574,-1.082383 -1.142516,0 -2.254965,0.87192 -2.254965,2.96152 0,1.999402 1.037284,2.96152 2.269998,2.96152 z M 49.331246,53.3211 c -0.571258,0 -0.901986,-0.511125 -0.901986,-1.368012 0,-0.856886 0.330728,-1.368011 0.901986,-1.368011 0.571257,0 0.917019,0.511125 0.917019,1.368011 0,0.841854 -0.345762,1.368012 -0.917019,1.368012 z"
         style="font-style:normal;font-variant:normal;font-weight:900;font-stretch:normal;font-family:Inter;-inkscape-font-specification:'Inter Heavy'"
         id="path855" />
      <path
         d="m 52.857789,54.839443 h 2.074567 v -5.772709 h -2.074567 z m 1.037284,-6.374033 c 0.563741,0 1.02225,-0.424685 1.02225,-0.947085 0,-0.5224 -0.458509,-0.947085 -1.02225,-0.947085 -0.563741,0 -1.022251,0.424685 -1.022251,0.947085 0,0.5224 0.45851,0.947085 1.022251,0.947085 z"
         style="font-style:normal;font-variant:normal;font-weight:900;font-stretch:normal;font-family:Inter;-inkscape-font-specification:'Inter Heavy'"
         id="path857" />
      <path
         d="m 55.540599,54.839443 h 2.074567 v -1.638608 l 0.311937,-0.394619 1.17634,2.033227 h 2.375229 L 59.45672,51.596052 61.418539,49.066734 H 59.08841 l -1.398078,1.939269 h -0.07517 v -3.863505 h -2.074567 z"
         style="font-style:normal;font-variant:normal;font-weight:900;font-stretch:normal;font-family:Inter;-inkscape-font-specification:'Inter Heavy'"
         id="path859" />
      <path
         d="m 63.139232,54.929641 c 0.751654,0 1.319154,-0.255562 1.668673,-0.901985 h 0.0451 v 0.811787 h 1.93927 v -3.953705 c 0,-1.067349 -1.010976,-1.89417 -2.660858,-1.89417 -1.725048,0 -2.574418,0.901986 -2.645825,1.954303 h 1.909203 c 0.04886,-0.357036 0.311937,-0.526159 0.706556,-0.526159 0.360794,0 0.616357,0.165365 0.616357,0.466026 v 0.01503 c 0,0.334486 -0.368311,0.439718 -1.337946,0.511125 -1.191373,0.08644 -2.119667,0.567499 -2.119667,1.834038 0,1.150031 0.774205,1.683706 1.879138,1.683706 z m 0.676489,-1.307879 c -0.353278,0 -0.601324,-0.172881 -0.601324,-0.496092 0,-0.296904 0.210463,-0.526159 0.691522,-0.601324 0.330729,-0.05262 0.608841,-0.120265 0.826821,-0.210463 v 0.481059 c 0,0.526158 -0.447235,0.82682 -0.917019,0.82682 z"
         style="font-style:normal;font-variant:normal;font-weight:900;font-stretch:normal;font-family:Inter;-inkscape-font-specification:'Inter Heavy'"
         id="path861" />
    </g>
    <text
       xml:space="preserve"
       style="font-size:10.5833px;line-height:1.25;font-family:Nunito;-inkscape-font-specification:Nunito;letter-spacing:-5.30754px;stroke-width:0.264583"
       x="51.050667"
       y="52.766655"
       id="text847"><tspan
         sodipodi:role="line"
         id="tspan845"
         x="51.050667"
         y="52.766655"
         style="stroke-width:0.264583" /></text>
    <ellipse
       style="fill:#ff007d;fill-opacity:1;stroke-width:29.6009"
       id="path868"
       cx="41.13559"
       cy="9.3330555"
       rx="3.7316225"
       ry="3.4559028" />
    <ellipse
       style="fill:#ff007d;fill-opacity:1;stroke-width:29.6009"
       id="path868-8"
       cx="97.53495"
       cy="9.3432293"
       rx="3.7316225"
       ry="3.4559028" />
    <rect
       style="fill:#000000;fill-opacity:1;stroke-width:19.0341"
       id="rect890"
       width="132.20697"
       height="6.3058424"
       x="12.871511"
       y="38.771435" />
  </g>
</svg>
